<svg width="32" height="32" viewBox="0 0 32 32" fill="none" xmlns="http://www.w3.org/2000/svg">
<circle cx="16" cy="16" r="15" stroke="black" stroke-width="2"/>
<path d="M12.1953 11.9531C11.9245 11.7812 11.8906 11.5156 12.0938 11.1562C12.3073 10.7812 12.7109 10.4167 13.3047 10.0625C13.8984 9.70833 14.6484 9.53125 15.5547 9.53125C16.7891 9.53125 17.6979 9.8099 18.2812 10.3672C18.8698 10.9245 19.1641 11.6875 19.1641 12.6562C19.1641 13.3906 18.7318 14.1849 17.8672 15.0391C17.0078 15.888 16.5781 16.5885 16.5781 17.1406V17.2656C16.5781 17.6042 16.4089 17.7734 16.0703 17.7734H14.8984C14.5599 17.7734 14.3906 17.6042 14.3906 17.2656V17.0312C14.3906 16.1771 14.7943 15.3281 15.6016 14.4844C16.4141 13.6406 16.8203 13.0156 16.8203 12.6094C16.8203 12.1875 16.7214 11.862 16.5234 11.6328C16.3307 11.3984 15.9818 11.2812 15.4766 11.2812C15.0286 11.2812 14.6667 11.3828 14.3906 11.5859C14.1146 11.7891 13.888 12.0365 13.7109 12.3281C13.5391 12.6146 13.3073 12.6641 13.0156 12.4766L12.1953 11.9531ZM14.8906 21C14.526 21 14.3438 20.8047 14.3438 20.4141V19.3672C14.3438 18.9766 14.526 18.7812 14.8906 18.7812H16.0781C16.4427 18.7812 16.625 18.9766 16.625 19.3672V20.4141C16.625 20.8047 16.4427 21 16.0781 21H14.8906Z" fill="black"/>
</svg>
