<svg width="32" height="32" viewBox="0 0 32 32" fill="none" xmlns="http://www.w3.org/2000/svg">
<circle cx="16" cy="16" r="15" stroke="black" stroke-width="2"/>
<path d="M7.14062 22C6.88021 22 6.75 21.8568 6.75 21.5703V11.2266C6.75 10.9401 6.88021 10.7969 7.14062 10.7969H13.9766C14.263 10.7969 14.4062 10.9141 14.4062 11.1484V11.7266C14.4062 11.9609 14.263 12.0781 13.9766 12.0781H8.25V15.5469H13.5078C13.7943 15.5469 13.9375 15.6641 13.9375 15.8984V16.4766C13.9375 16.7109 13.7943 16.8281 13.5078 16.8281H8.25V20.7188H14.2109C14.4974 20.7188 14.6406 20.8359 14.6406 21.0703V21.6484C14.6406 21.8828 14.4974 22 14.2109 22H7.14062ZM17.0625 22C16.8021 22 16.6719 21.8568 16.6719 21.5703V11.2266C16.6719 10.9401 16.8021 10.7969 17.0625 10.7969H18.0625C18.4271 10.7969 18.6875 10.9271 18.8438 11.1875L23.7344 19.3828H23.7656C23.7552 19.1745 23.75 18.9661 23.75 18.7578V11.2266C23.75 10.9401 23.8802 10.7969 24.1406 10.7969H24.8594C25.1198 10.7969 25.25 10.9401 25.25 11.2266V21.5703C25.25 21.8568 25.1198 22 24.8594 22H24.1719C23.8073 22 23.5469 21.8698 23.3906 21.6094L18.1875 12.9141H18.1562C18.1667 13.1224 18.1719 13.3307 18.1719 13.5391V21.5703C18.1719 21.8568 18.0417 22 17.7812 22H17.0625Z" fill="black"/>
</svg>
