<svg width="34" height="34" viewBox="0 0 34 34" fill="none" xmlns="http://www.w3.org/2000/svg">
<path d="M15.3132 4.37354H4.18071C3.33713 4.37354 2.52811 4.70864 1.93161 5.30514C1.33511 5.90164 1 6.71066 1 7.55423V29.8191C1 30.6627 1.33511 31.4717 1.93161 32.0682C2.52811 32.6647 3.33713 32.9998 4.18071 32.9998H26.4456C27.2892 32.9998 28.0982 32.6647 28.6947 32.0682C29.2912 31.4717 29.6264 30.6627 29.6264 29.8191V18.6867" stroke="black" stroke-width="2" stroke-linecap="round" stroke-linejoin="round"/>
<path d="M27.2407 1.98812C27.8734 1.35544 28.7315 1 29.6262 1C30.521 1 31.3791 1.35544 32.0118 1.98812C32.6444 2.6208 32.9999 3.47889 32.9999 4.37364C32.9999 5.26838 32.6444 6.12648 32.0118 6.75916L16.9034 21.8675L10.542 23.4578L12.1323 17.0964L27.2407 1.98812Z" stroke="black" stroke-width="2" stroke-linecap="round" stroke-linejoin="round"/>
</svg>
