<svg width="126" height="48" viewBox="0 0 126 48" fill="none" xmlns="http://www.w3.org/2000/svg">
<path d="M107.667 6.81641H93.0007C92.0282 6.81641 91.0956 7.17041 90.4079 7.80053C89.7203 8.43065 89.334 9.28528 89.334 10.1764V37.0564C89.334 37.9475 89.7203 38.8022 90.4079 39.4323C91.0956 40.0624 92.0282 40.4164 93.0007 40.4164H115.001C115.973 40.4164 116.906 40.0624 117.593 39.4323C118.281 38.8022 118.667 37.9475 118.667 37.0564V16.8964V6.81641H107.667Z" stroke="black" stroke-width="3" stroke-linecap="round" stroke-linejoin="round"/>
<path d="M106.934 6.81641H118.667V16.8964" stroke="black" stroke-width="3" stroke-linecap="round" stroke-linejoin="round"/>
<path d="M112.068 18.4082H104.366H96.6641" stroke="black" stroke-width="3" stroke-linecap="round" stroke-linejoin="round"/>
<path d="M112.07 12.1934H104.368H96.666" stroke="black" stroke-width="3" stroke-linecap="round" stroke-linejoin="round"/>
<path d="M112.066 24.9609H104.366H96.666" stroke="black" stroke-width="3" stroke-linecap="round" stroke-linejoin="round"/>
<path d="M104.367 28.6562L108.688 38.1594L110.222 34.021L114.738 32.6154L104.367 28.6562Z" stroke="black" stroke-width="2" stroke-linecap="round" stroke-linejoin="round"/>
<path d="M110.479 34.2559L114.145 37.6159" stroke="black" stroke-width="2" stroke-linecap="round" stroke-linejoin="round"/>
<path d="M17.748 18.1631C17.748 17.833 17.6973 17.5368 17.5957 17.2744C17.5026 17.0036 17.3249 16.7581 17.0625 16.5381C16.8001 16.3096 16.432 16.0853 15.958 15.8652C15.484 15.6452 14.8704 15.4167 14.1172 15.1797C13.2793 14.9089 12.4837 14.6042 11.7305 14.2656C10.9857 13.9271 10.3255 13.5335 9.75 13.085C9.18294 12.6279 8.73438 12.099 8.4043 11.498C8.08268 10.8971 7.92188 10.1989 7.92188 9.40332C7.92188 8.63314 8.09115 7.9349 8.42969 7.30859C8.76823 6.67383 9.24219 6.13216 9.85156 5.68359C10.4609 5.22656 11.1803 4.87533 12.0098 4.62988C12.8477 4.38444 13.766 4.26172 14.7646 4.26172C16.1273 4.26172 17.3164 4.50716 18.332 4.99805C19.3477 5.48893 20.1348 6.16178 20.6934 7.0166C21.2604 7.87142 21.5439 8.84896 21.5439 9.94922H17.7607C17.7607 9.40755 17.6465 8.93359 17.418 8.52734C17.1979 8.11263 16.8594 7.78678 16.4023 7.5498C15.9538 7.31283 15.3867 7.19434 14.7012 7.19434C14.041 7.19434 13.4909 7.2959 13.0508 7.49902C12.6107 7.69368 12.2806 7.96029 12.0605 8.29883C11.8405 8.62891 11.7305 9.0013 11.7305 9.41602C11.7305 9.72917 11.8066 10.0127 11.959 10.2666C12.1198 10.5205 12.3568 10.7575 12.6699 10.9775C12.9831 11.1976 13.3682 11.4049 13.8252 11.5996C14.2822 11.7943 14.8112 11.9847 15.4121 12.1709C16.4193 12.4756 17.3037 12.8184 18.0654 13.1992C18.8356 13.5801 19.4788 14.0075 19.9951 14.4814C20.5114 14.9554 20.9007 15.4928 21.1631 16.0938C21.4255 16.6947 21.5566 17.376 21.5566 18.1377C21.5566 18.9417 21.4001 19.6611 21.0869 20.2959C20.7738 20.9307 20.321 21.4681 19.7285 21.9082C19.1361 22.3483 18.4294 22.6826 17.6084 22.9111C16.7874 23.1396 15.8691 23.2539 14.8535 23.2539C13.9395 23.2539 13.0381 23.1354 12.1494 22.8984C11.2607 22.653 10.4525 22.2848 9.72461 21.7939C9.00521 21.3031 8.42969 20.6768 7.99805 19.915C7.56641 19.1533 7.35059 18.252 7.35059 17.2109H11.1719C11.1719 17.7865 11.2607 18.2731 11.4385 18.6709C11.6162 19.0687 11.8659 19.3903 12.1875 19.6357C12.5176 19.8812 12.9069 20.0589 13.3555 20.1689C13.8125 20.279 14.3118 20.334 14.8535 20.334C15.5137 20.334 16.0553 20.2409 16.4785 20.0547C16.9102 19.8685 17.2275 19.6104 17.4307 19.2803C17.6423 18.9502 17.748 18.5778 17.748 18.1631ZM28.6025 20.0674L32.2842 4.51562H34.3408L34.8105 7.10547L30.8877 23H28.6787L28.6025 20.0674ZM26.7109 4.51562L29.7578 20.0674L29.5039 23H27.041L22.9404 4.51562H26.7109ZM38.0479 20.0039L41.0566 4.51562H44.8271L40.7393 23H38.2764L38.0479 20.0039ZM35.4961 4.51562L39.2031 20.1309L39.1016 23H36.8926L32.9443 7.09277L33.4521 4.51562H35.4961ZM50.9463 4.51562V23H47.1504V4.51562H50.9463ZM58.3223 4.51562V23H54.5137V4.51562H58.3223ZM65.6855 12.4121V15.3828H57.2812V12.4121H65.6855ZM66.5742 4.51562V7.49902H57.2812V4.51562H66.5742ZM77.3018 4.51562V23H73.5059V4.51562H77.3018ZM82.9893 4.51562V7.49902H67.9072V4.51562H82.9893ZM20.5283 40.0293V43H10.6895V40.0293H20.5283ZM11.9336 24.5156V43H8.125V24.5156H11.9336ZM19.2461 32.0439V34.9385H10.6895V32.0439H19.2461ZM20.5156 24.5156V27.499H10.6895V24.5156H20.5156ZM25.8857 24.5156L29.3643 30.9648L32.8428 24.5156H37.1973L31.8271 33.6816L37.3369 43H32.9443L29.3643 36.4238L25.7842 43H21.3662L26.8887 33.6816L21.5059 24.5156H25.8857ZM46.7695 27.6768L41.7422 43H37.6924L44.5605 24.5156H47.1377L46.7695 27.6768ZM50.9463 43L45.9062 27.6768L45.5 24.5156H48.1025L55.0088 43H50.9463ZM50.7178 36.1191V39.1025H40.9551V36.1191H50.7178ZM58.4619 24.5156H61.6865L66.4346 38.0869L71.1826 24.5156H74.4072L67.7295 43H65.1396L58.4619 24.5156ZM56.7227 24.5156H59.9346L60.5186 37.7441V43H56.7227V24.5156ZM72.9346 24.5156H76.1592V43H72.3506V37.7441L72.9346 24.5156Z" fill="black"/>
</svg>
