<svg width="126" height="48" viewBox="0 0 126 48" fill="none" xmlns="http://www.w3.org/2000/svg">
<path d="M3.66923 5.127H27.6392V9.87H8.61623V21.09H25.5992V25.833H8.61623V37.257H28.3532V42H3.66923V5.127Z" fill="black"/>
<path d="M32.9064 22.8008L40.5624 4.68078H40.7064L48.3624 22.8008H45.4344L39.8664 8.68878L41.7144 7.46478L35.4264 22.8008H32.9064ZM37.5624 16.2728H43.7544L44.6424 18.4808H36.7944L37.5624 16.2728ZM60.5591 8.71278C59.9511 8.39278 59.2951 8.12078 58.5911 7.89678C57.8871 7.67278 57.2071 7.56078 56.5511 7.56078C55.6551 7.56078 54.9431 7.76878 54.4151 8.18478C53.8871 8.58478 53.6231 9.13678 53.6231 9.84078C53.6231 10.3368 53.7991 10.7688 54.1511 11.1368C54.5031 11.5048 54.9591 11.8248 55.5191 12.0968C56.0791 12.3688 56.6711 12.6248 57.2951 12.8648C57.8231 13.0568 58.3431 13.2888 58.8551 13.5608C59.3831 13.8168 59.8551 14.1368 60.2711 14.5208C60.7031 14.9048 61.0391 15.3848 61.2791 15.9608C61.5351 16.5208 61.6631 17.2088 61.6631 18.0248C61.6631 18.9528 61.4311 19.7928 60.9671 20.5448C60.5191 21.2968 59.8631 21.8968 58.9991 22.3448C58.1511 22.7768 57.1191 22.9928 55.9031 22.9928C55.1671 22.9928 54.4471 22.9128 53.7431 22.7528C53.0551 22.5768 52.3991 22.3528 51.7751 22.0808C51.1671 21.7928 50.6151 21.4808 50.1191 21.1448L51.2711 19.1528C51.6551 19.4248 52.0951 19.6888 52.5911 19.9448C53.0871 20.1848 53.5991 20.3768 54.1271 20.5208C54.6711 20.6648 55.1831 20.7368 55.6631 20.7368C56.1911 20.7368 56.7111 20.6488 57.2231 20.4728C57.7351 20.2808 58.1591 19.9928 58.4951 19.6088C58.8311 19.2088 58.9991 18.6888 58.9991 18.0488C58.9991 17.5048 58.8471 17.0488 58.5431 16.6808C58.2551 16.2968 57.8631 15.9688 57.3671 15.6968C56.8871 15.4248 56.3671 15.1848 55.8071 14.9768C55.2631 14.7688 54.7111 14.5368 54.1511 14.2808C53.5911 14.0248 53.0711 13.7208 52.5911 13.3688C52.1111 13.0008 51.7191 12.5528 51.4151 12.0248C51.1271 11.4808 50.9831 10.8168 50.9831 10.0328C50.9831 9.10478 51.1991 8.29678 51.6311 7.60878C52.0791 6.90478 52.6951 6.35278 53.4791 5.95278C54.2631 5.55278 55.1671 5.32878 56.1911 5.28078C57.3591 5.28078 58.3751 5.42478 59.2391 5.71278C60.1031 6.00078 60.8711 6.34478 61.5431 6.74478L60.5591 8.71278ZM70.0638 17.0648L63.6078 5.37678H66.7758L71.7918 14.8808L71.0238 14.9288L75.9918 5.37678H79.1358L72.6318 17.0648V22.8008H70.0638V17.0648Z" fill="black"/>
<path d="M32.7463 24.576H36.0103L47.3383 42H44.0503L32.7463 24.576ZM32.5063 42L38.5783 32.472L39.8263 34.992L35.6743 42H32.5063ZM39.9223 31.536L44.0263 24.576H47.1223L41.2903 33.72L39.9223 31.536ZM48.7931 42L56.4491 23.88H56.5931L64.2491 42H61.3211L55.7531 27.888L57.6011 26.664L51.3131 42H48.7931ZM53.4491 35.472H59.6411L60.5291 37.68H52.6811L53.4491 35.472ZM67.3738 42V24H67.3978L76.6618 37.128L75.5578 36.888L84.7738 24H84.8218V42H82.2778V29.784L82.4458 31.104L76.0138 40.2H75.9658L69.4138 31.104L69.8458 29.904V42H67.3738Z" fill="black"/>
<path d="M107.667 6.81641H93.0007C92.0282 6.81641 91.0956 7.17041 90.4079 7.80053C89.7203 8.43065 89.334 9.28528 89.334 10.1764V37.0564C89.334 37.9475 89.7203 38.8022 90.4079 39.4323C91.0956 40.0624 92.0282 40.4164 93.0007 40.4164H115.001C115.973 40.4164 116.906 40.0624 117.593 39.4323C118.281 38.8022 118.667 37.9475 118.667 37.0564V16.8964V6.81641H107.667Z" stroke="black" stroke-width="3" stroke-linecap="round" stroke-linejoin="round"/>
<path d="M106.934 6.81641H118.667V16.8964" stroke="black" stroke-width="3" stroke-linecap="round" stroke-linejoin="round"/>
<path d="M112.068 18.4082H104.366H96.6641" stroke="black" stroke-width="3" stroke-linecap="round" stroke-linejoin="round"/>
<path d="M112.07 12.1934H104.368H96.666" stroke="black" stroke-width="3" stroke-linecap="round" stroke-linejoin="round"/>
<path d="M112.066 24.9609H104.366H96.666" stroke="black" stroke-width="3" stroke-linecap="round" stroke-linejoin="round"/>
<path d="M104.367 28.6562L108.688 38.1594L110.222 34.021L114.738 32.6154L104.367 28.6562Z" stroke="black" stroke-width="2" stroke-linecap="round" stroke-linejoin="round"/>
<path d="M110.479 34.2559L114.145 37.6159" stroke="black" stroke-width="2" stroke-linecap="round" stroke-linejoin="round"/>
</svg>
