<svg width="37" height="36" viewBox="0 0 37 36" fill="none" xmlns="http://www.w3.org/2000/svg">
  <path d="M33.541 28.5C33.541 29.2956 33.2249 30.0587 32.6623 30.6213C32.0997 31.1839 31.3367 31.5 30.541 31.5H6.54102C5.74537 31.5 4.9823 31.1839 4.4197 30.6213C3.85709 30.0587 3.54102 29.2956 3.54102 28.5V7.5C3.54102 6.70435 3.85709 5.94129 4.4197 5.37868C4.9823 4.81607 5.74537 4.5 6.54102 4.5H14.041L17.041 9H30.541C31.3367 9 32.0997 9.31607 32.6623 9.87868C33.2249 10.4413 33.541 11.2044 33.541 12V28.5Z" stroke="black" stroke-width="2" stroke-linecap="round" stroke-linejoin="round" />
  <path d="M18.541 16.5V25.5" stroke="black" stroke-width="2" stroke-linecap="round" stroke-linejoin="round" />
  <path d="M14.041 21H23.041" stroke="black" stroke-width="2" stroke-linecap="round" stroke-linejoin="round" />
</svg>