<svg width="34" height="34" viewBox="0 0 34 34" fill="none" xmlns="http://www.w3.org/2000/svg">
<path d="M25 4.2002H29C30.0609 4.2002 31.0783 4.53734 31.8284 5.13745C32.5786 5.73757 33 6.5515 33 7.40019V29.8001C33 30.6488 32.5786 31.4627 31.8284 32.0629C31.0783 32.663 30.0609 33.0001 29 33.0001H5C3.93913 33.0001 2.92172 32.663 2.17157 32.0629C1.42143 31.4627 1 30.6488 1 29.8001V7.40019C1 6.5515 1.42143 5.73757 2.17157 5.13745C2.92172 4.53734 3.93913 4.2002 5 4.2002H9" stroke="black" stroke-width="2" stroke-linecap="round" stroke-linejoin="round"/>
<path d="M23.001 1H11.001C9.89641 1 9.00098 1.71634 9.00098 2.6V5.79999C9.00098 6.68364 9.89641 7.39998 11.001 7.39998H23.001C24.1055 7.39998 25.001 6.68364 25.001 5.79999V2.6C25.001 1.71634 24.1055 1 23.001 1Z" stroke="black" stroke-width="2" stroke-linecap="round" stroke-linejoin="round"/>
</svg>
