<svg width="33" height="33" viewBox="0 0 33 33" fill="none" xmlns="http://www.w3.org/2000/svg">
<path d="M32.0005 23.5558V21.1573C32.0005 19.8851 31.2072 18.665 29.7952 17.7653C28.3831 16.8657 26.468 16.3604 24.471 16.3604H9.41205C7.4151 16.3604 5 17.9998 4.5 19.4998" stroke="black" stroke-width="2" stroke-linecap="round" stroke-linejoin="round"/>
<path d="M16.5 14C19.5376 14 22 11.0899 22 7.5C22 3.91015 19.5376 1 16.5 1C13.4624 1 11 3.91015 11 7.5C11 11.0899 13.4624 14 16.5 14Z" stroke="black" stroke-width="2" stroke-linecap="round" stroke-linejoin="round"/>
<g clip-path="url(#clip0_1067_3894)">
<path d="M2 20H7.64712C8.64559 20 9.60317 20.2843 10.3092 20.7903C11.0152 21.2963 11.4119 21.9827 11.4119 22.6983V32.1423C11.4119 31.6056 11.1144 31.0908 10.5849 30.7113C10.0553 30.3318 9.33716 30.1186 8.58831 30.1186H2V20Z" stroke="black" stroke-width="2" stroke-linecap="round" stroke-linejoin="round"/>
<path d="M20.823 20H15.1759C14.1774 20 13.2198 20.2843 12.5138 20.7903C11.8078 21.2963 11.4111 21.9827 11.4111 22.6983V32.1423C11.4111 31.6056 11.7086 31.0908 12.2381 30.7113C12.7677 30.3318 13.4858 30.1186 14.2347 30.1186H20.823V20Z" stroke="black" stroke-width="2" stroke-linecap="round" stroke-linejoin="round"/>
</g>
<defs>
<clipPath id="clip0_1067_3894">
<rect width="22.5885" height="16.1897" fill="white" transform="translate(0 16.8101)"/>
</clipPath>
</defs>
</svg>
