<svg width="34" height="34" viewBox="0 0 34 34" fill="none" xmlns="http://www.w3.org/2000/svg">
<path d="M5.8 23.7246H4.2C3.35131 23.7246 2.53737 23.3826 1.93726 22.7738C1.33714 22.165 1 21.3393 1 20.4783V4.24638C1 3.38538 1.33714 2.55966 1.93726 1.95084C2.53737 1.34203 3.35131 1 4.2 1H29.8C30.6487 1 31.4626 1.34203 32.0627 1.95084C32.6629 2.55966 33 3.38538 33 4.24638V20.4783C33 21.3393 32.6629 22.165 32.0627 22.7738C31.4626 23.3826 30.6487 23.7246 29.8 23.7246H28.2" stroke="black" stroke-width="2" stroke-linecap="round" stroke-linejoin="round"/>
<path d="M17.5823 23.2607L24.855 32.9999H10.3096L17.5823 23.2607Z" stroke="black" stroke-width="2" stroke-linecap="round" stroke-linejoin="round"/>
</svg>
