<svg width="34" height="34" viewBox="0 0 34 34" fill="none" xmlns="http://www.w3.org/2000/svg">
<path d="M17 33C25.8366 33 33 25.8366 33 17C33 8.16344 25.8366 1 17 1C8.16344 1 1 8.16344 1 17C1 25.8366 8.16344 33 17 33Z" stroke="black" stroke-width="2" stroke-linecap="round" stroke-linejoin="round"/>
<path d="M12.3428 12.1998C12.7189 11.1305 13.4614 10.2288 14.4387 9.65445C15.416 9.08009 16.565 8.87014 17.6823 9.06178C18.7995 9.25341 19.8129 9.83428 20.5429 10.7015C21.2729 11.5687 21.6725 12.6663 21.6708 13.7998C21.6708 16.9998 16.8708 18.5998 16.8708 18.5998" stroke="black" stroke-width="2" stroke-linecap="round" stroke-linejoin="round"/>
<path d="M17 25H17.0147" stroke="black" stroke-width="2" stroke-linecap="round" stroke-linejoin="round"/>
</svg>
