<svg width="34" height="34" viewBox="0 0 34 34" fill="none" xmlns="http://www.w3.org/2000/svg">
<path d="M24.2722 33.0002V29.4446C24.2722 27.5586 23.6592 25.7499 22.5681 24.4163C21.477 23.0827 19.9972 22.3335 18.4542 22.3335H6.81805C5.27501 22.3335 3.79516 23.0827 2.70407 24.4163C1.61297 25.7499 1 27.5586 1 29.4446V33.0002" stroke="black" stroke-width="2" stroke-linecap="round" stroke-linejoin="round"/>
<path d="M12.6364 15.2222C15.8496 15.2222 18.4545 12.0385 18.4545 8.11111C18.4545 4.18375 15.8496 1 12.6364 1C9.42319 1 6.81836 4.18375 6.81836 8.11111C6.81836 12.0385 9.42319 15.2222 12.6364 15.2222Z" stroke="black" stroke-width="2" stroke-linecap="round" stroke-linejoin="round"/>
<path d="M33.0003 33V29.4445C32.9993 27.8689 32.5702 26.3383 31.7805 25.093C30.9907 23.8478 29.8849 22.9584 28.6367 22.5645" stroke="black" stroke-width="2" stroke-linecap="round" stroke-linejoin="round"/>
<path d="M22.8174 1.23096C24.0689 1.6226 25.1781 2.5122 25.9702 3.75951C26.7624 5.00681 27.1923 6.54088 27.1923 8.11984C27.1923 9.69881 26.7624 11.2329 25.9702 12.4802C25.1781 13.7275 24.0689 14.6171 22.8174 15.0087" stroke="black" stroke-width="2" stroke-linecap="round" stroke-linejoin="round"/>
</svg>
