<svg width="34" height="34" viewBox="0 0 34 34" fill="none" xmlns="http://www.w3.org/2000/svg">
<path d="M21 1H5C3.93913 1 2.92172 1.33714 2.17157 1.93726C1.42143 2.53737 1 3.35131 1 4.2V29.8C1 30.6487 1.42143 31.4626 2.17157 32.0627C2.92172 32.6629 3.93913 33 5 33H29C30.0609 33 31.0783 32.6629 31.8284 32.0627C32.5786 31.4626 33 30.6487 33 29.8V10.6L21 1Z" stroke="black" stroke-width="2" stroke-linecap="round" stroke-linejoin="round"/>
<path d="M21 1V10.6H33" stroke="black" stroke-width="2" stroke-linecap="round" stroke-linejoin="round"/>
<path d="M25 18.5996H9" stroke="black" stroke-width="2" stroke-linecap="round" stroke-linejoin="round"/>
<path d="M25 25H9" stroke="black" stroke-width="2" stroke-linecap="round" stroke-linejoin="round"/>
<path d="M13 12.2002H11H9" stroke="black" stroke-width="2" stroke-linecap="round" stroke-linejoin="round"/>
</svg>
