<svg width="34" height="34" viewBox="0 0 34 34" fill="none" xmlns="http://www.w3.org/2000/svg">
<path d="M6.33301 1V22.3333" stroke="black" stroke-width="2" stroke-linecap="round" stroke-linejoin="round"/>
<path d="M27.6664 11.6667C30.612 11.6667 32.9998 9.27885 32.9998 6.33333C32.9998 3.38781 30.612 1 27.6664 1C24.7209 1 22.333 3.38781 22.333 6.33333C22.333 9.27885 24.7209 11.6667 27.6664 11.6667Z" stroke="black" stroke-width="2" stroke-linecap="round" stroke-linejoin="round"/>
<path d="M6.3334 33.0002C9.27895 33.0002 11.6668 30.6123 11.6668 27.6668C11.6668 24.7213 9.27895 22.3335 6.3334 22.3335C3.38784 22.3335 1 24.7213 1 27.6668C1 30.6123 3.38784 33.0002 6.3334 33.0002Z" stroke="black" stroke-width="2" stroke-linecap="round" stroke-linejoin="round"/>
<path d="M27.6672 11.6665C27.6672 15.91 25.9815 19.9796 22.9808 22.9802C19.9802 25.9808 15.9105 27.6665 11.667 27.6665" stroke="black" stroke-width="2" stroke-linecap="round" stroke-linejoin="round"/>
</svg>
