<svg width="34" height="34" viewBox="0 0 34 34" fill="none" xmlns="http://www.w3.org/2000/svg">
<path d="M29.8 1H4.2C2.43269 1 1 2.43269 1 4.2V10.6C1 12.3673 2.43269 13.8 4.2 13.8H29.8C31.5673 13.8 33 12.3673 33 10.6V4.2C33 2.43269 31.5673 1 29.8 1Z" stroke="black" stroke-width="2" stroke-linecap="round" stroke-linejoin="round"/>
<path d="M29.8 20.2002H4.2C2.43269 20.2002 1 21.6329 1 23.4002V29.8002C1 31.5675 2.43269 33.0002 4.2 33.0002H29.8C31.5673 33.0002 33 31.5675 33 29.8002V23.4002C33 21.6329 31.5673 20.2002 29.8 20.2002Z" stroke="black" stroke-width="2" stroke-linecap="round" stroke-linejoin="round"/>
<path d="M7.40039 7.3999H7.41591" stroke="black" stroke-width="2" stroke-linecap="round" stroke-linejoin="round"/>
<path d="M7.40039 26.6001H7.41591" stroke="black" stroke-width="2" stroke-linecap="round" stroke-linejoin="round"/>
</svg>
