<svg width="32" height="32" viewBox="0 0 32 32" fill="none" xmlns="http://www.w3.org/2000/svg">
<g clip-path="url(#clip0_1351_19548)">
<path d="M16 20C18.2091 20 20 18.2091 20 16C20 13.7909 18.2091 12 16 12C13.7909 12 12 13.7909 12 16C12 18.2091 13.7909 20 16 20Z" stroke="black" stroke-width="2" stroke-linecap="round" stroke-linejoin="round"/>
<path d="M25.8663 19.9997C25.6889 20.4018 25.6359 20.8479 25.7143 21.2805C25.7928 21.713 25.999 22.1121 26.3063 22.4263L26.3863 22.5063C26.6343 22.754 26.831 23.0481 26.9652 23.3718C27.0994 23.6956 27.1684 24.0426 27.1684 24.393C27.1684 24.7434 27.0994 25.0905 26.9652 25.4142C26.831 25.7379 26.6343 26.032 26.3863 26.2797C26.1387 26.5276 25.8446 26.7243 25.5208 26.8585C25.1971 26.9927 24.8501 27.0618 24.4997 27.0618C24.1492 27.0618 23.8022 26.9927 23.4785 26.8585C23.1548 26.7243 22.8607 26.5276 22.613 26.2797L22.533 26.1997C22.2188 25.8923 21.8197 25.6861 21.3871 25.6077C20.9546 25.5292 20.5085 25.5822 20.1063 25.7597C19.712 25.9287 19.3757 26.2093 19.1388 26.5671C18.9019 26.9248 18.7747 27.344 18.773 27.773V27.9997C18.773 28.7069 18.4921 29.3852 17.992 29.8853C17.4919 30.3854 16.8136 30.6663 16.1063 30.6663C15.3991 30.6663 14.7208 30.3854 14.2207 29.8853C13.7206 29.3852 13.4397 28.7069 13.4397 27.9997V27.8797C13.4294 27.4383 13.2865 27.0103 13.0297 26.6513C12.7729 26.2922 12.414 26.0187 11.9997 25.8663C11.5975 25.6889 11.1514 25.6359 10.7189 25.7143C10.2864 25.7928 9.88725 25.999 9.57301 26.3063L9.49301 26.3863C9.24535 26.6343 8.95124 26.831 8.62752 26.9652C8.30379 27.0994 7.95678 27.1684 7.60634 27.1684C7.2559 27.1684 6.9089 27.0994 6.58517 26.9652C6.26144 26.831 5.96734 26.6343 5.71967 26.3863C5.47174 26.1387 5.27505 25.8446 5.14085 25.5208C5.00665 25.1971 4.93758 24.8501 4.93758 24.4997C4.93758 24.1492 5.00665 23.8022 5.14085 23.4785C5.27505 23.1548 5.47174 22.8607 5.71967 22.613L5.79967 22.533C6.10706 22.2188 6.31326 21.8197 6.39168 21.3871C6.47011 20.9546 6.41716 20.5085 6.23967 20.1063C6.07066 19.712 5.79002 19.3757 5.43229 19.1388C5.07457 18.9019 4.65539 18.7747 4.22634 18.773H3.99967C3.29243 18.773 2.61415 18.4921 2.11406 17.992C1.61396 17.4919 1.33301 16.8136 1.33301 16.1063C1.33301 15.3991 1.61396 14.7208 2.11406 14.2207C2.61415 13.7206 3.29243 13.4397 3.99967 13.4397H4.11967C4.561 13.4294 4.98901 13.2865 5.34807 13.0297C5.70713 12.7729 5.98063 12.414 6.13301 11.9997C6.31049 11.5975 6.36344 11.1514 6.28501 10.7189C6.20659 10.2864 6.00039 9.88725 5.69301 9.57301L5.61301 9.49301C5.36507 9.24535 5.16838 8.95124 5.03418 8.62752C4.89998 8.30379 4.83091 7.95678 4.83091 7.60634C4.83091 7.2559 4.89998 6.9089 5.03418 6.58517C5.16838 6.26144 5.36507 5.96734 5.61301 5.71967C5.86067 5.47174 6.15477 5.27505 6.4785 5.14085C6.80223 5.00665 7.14923 4.93758 7.49967 4.93758C7.85012 4.93758 8.19712 5.00665 8.52085 5.14085C8.84458 5.27505 9.13868 5.47174 9.38634 5.71967L9.46634 5.79967C9.78058 6.10706 10.1797 6.31326 10.6122 6.39168C11.0447 6.47011 11.4909 6.41716 11.893 6.23967H11.9997C12.394 6.07066 12.7304 5.79002 12.9673 5.43229C13.2042 5.07457 13.3313 4.65539 13.333 4.22634V3.99967C13.333 3.29243 13.614 2.61415 14.1141 2.11406C14.6142 1.61396 15.2924 1.33301 15.9997 1.33301C16.7069 1.33301 17.3852 1.61396 17.8853 2.11406C18.3854 2.61415 18.6663 3.29243 18.6663 3.99967V4.11967C18.6681 4.54872 18.7952 4.96791 19.0321 5.32563C19.269 5.68335 19.6053 5.96399 19.9997 6.13301C20.4018 6.31049 20.8479 6.36344 21.2805 6.28501C21.713 6.20659 22.1121 6.00039 22.4263 5.69301L22.5063 5.61301C22.754 5.36507 23.0481 5.16838 23.3718 5.03418C23.6956 4.89998 24.0426 4.83091 24.393 4.83091C24.7434 4.83091 25.0905 4.89998 25.4142 5.03418C25.7379 5.16838 26.032 5.36507 26.2797 5.61301C26.5276 5.86067 26.7243 6.15477 26.8585 6.4785C26.9927 6.80223 27.0618 7.14923 27.0618 7.49967C27.0618 7.85012 26.9927 8.19712 26.8585 8.52085C26.7243 8.84458 26.5276 9.13868 26.2797 9.38634L26.1997 9.46634C25.8923 9.78058 25.6861 10.1797 25.6077 10.6122C25.5292 11.0447 25.5822 11.4909 25.7597 11.893V11.9997C25.9287 12.394 26.2093 12.7304 26.5671 12.9673C26.9248 13.2042 27.344 13.3313 27.773 13.333H27.9997C28.7069 13.333 29.3852 13.614 29.8853 14.1141C30.3854 14.6142 30.6663 15.2924 30.6663 15.9997C30.6663 16.7069 30.3854 17.3852 29.8853 17.8853C29.3852 18.3854 28.7069 18.6663 27.9997 18.6663H27.8797C27.4506 18.6681 27.0314 18.7952 26.6737 19.0321C26.316 19.269 26.0354 19.6053 25.8663 19.9997Z" stroke="black" stroke-width="2" stroke-linecap="round" stroke-linejoin="round"/>
</g>
<defs>
<clipPath id="clip0_1351_19548">
<rect width="32" height="32" fill="white"/>
</clipPath>
</defs>
</svg>
