<svg width="26" height="29" viewBox="0 0 26 29" fill="none" xmlns="http://www.w3.org/2000/svg">
<path d="M1.3731 3.49L9.6981 13V28L15.6981 25V13L24.0231 3.49C24.2134 3.27344 24.3372 3.00664 24.3798 2.72153C24.4223 2.43643 24.3819 2.1451 24.2632 1.8824C24.1445 1.6197 23.9526 1.39677 23.7105 1.24028C23.4684 1.08378 23.1864 1.00036 22.8981 1H2.4981C2.20984 1.00036 1.92778 1.08378 1.68569 1.24028C1.4436 1.39677 1.25173 1.6197 1.13304 1.8824C1.01436 2.1451 0.973876 2.43643 1.01645 2.72153C1.05902 3.00664 1.18285 3.27344 1.3731 3.49Z" stroke="black" stroke-width="2" stroke-linecap="round" stroke-linejoin="round"/>
</svg>
