<svg width="16" height="16" viewBox="0 0 16 16" fill="none" xmlns="http://www.w3.org/2000/svg">
<rect width="16" height="16" rx="3" fill="white"/>
<path d="M6.44238 10.1396C6.44238 10.0127 6.42285 9.89876 6.38379 9.79785C6.34798 9.69368 6.27962 9.59928 6.17871 9.51465C6.0778 9.42676 5.9362 9.34049 5.75391 9.25586C5.57161 9.17122 5.33561 9.08333 5.0459 8.99219C4.72363 8.88802 4.41764 8.77083 4.12793 8.64062C3.84147 8.51042 3.58757 8.35905 3.36621 8.18652C3.14811 8.01074 2.97559 7.80729 2.84863 7.57617C2.72493 7.34505 2.66309 7.0765 2.66309 6.77051C2.66309 6.47428 2.72819 6.20573 2.8584 5.96484C2.98861 5.7207 3.1709 5.51237 3.40527 5.33984C3.63965 5.16406 3.91634 5.02897 4.23535 4.93457C4.55762 4.84017 4.91081 4.79297 5.29492 4.79297C5.81901 4.79297 6.27637 4.88737 6.66699 5.07617C7.05762 5.26497 7.36035 5.52376 7.5752 5.85254C7.79329 6.18132 7.90234 6.55729 7.90234 6.98047H6.44727C6.44727 6.77214 6.40332 6.58984 6.31543 6.43359C6.23079 6.27409 6.10059 6.14876 5.9248 6.05762C5.75228 5.96647 5.53418 5.9209 5.27051 5.9209C5.0166 5.9209 4.80501 5.95996 4.63574 6.03809C4.46647 6.11296 4.33952 6.21549 4.25488 6.3457C4.17025 6.47266 4.12793 6.61589 4.12793 6.77539C4.12793 6.89583 4.15723 7.00488 4.21582 7.10254C4.27767 7.2002 4.36882 7.29134 4.48926 7.37598C4.6097 7.46061 4.75781 7.54036 4.93359 7.61523C5.10938 7.6901 5.31283 7.76335 5.54395 7.83496C5.93132 7.95215 6.27148 8.08398 6.56445 8.23047C6.86068 8.37695 7.10807 8.54134 7.30664 8.72363C7.50521 8.90592 7.65495 9.11263 7.75586 9.34375C7.85677 9.57487 7.90723 9.83691 7.90723 10.1299C7.90723 10.4391 7.84701 10.7158 7.72656 10.96C7.60612 11.2041 7.43197 11.4108 7.2041 11.5801C6.97624 11.7493 6.70443 11.8779 6.38867 11.9658C6.07292 12.0537 5.71973 12.0977 5.3291 12.0977C4.97754 12.0977 4.63086 12.0521 4.28906 11.9609C3.94727 11.8665 3.63639 11.7249 3.35645 11.5361C3.07975 11.3473 2.8584 11.1064 2.69238 10.8135C2.52637 10.5205 2.44336 10.1738 2.44336 9.77344H3.91309C3.91309 9.99479 3.94727 10.182 4.01562 10.335C4.08398 10.488 4.18001 10.6117 4.30371 10.7061C4.43066 10.8005 4.5804 10.8688 4.75293 10.9111C4.92871 10.9535 5.12077 10.9746 5.3291 10.9746C5.58301 10.9746 5.79134 10.9388 5.9541 10.8672C6.12012 10.7956 6.24219 10.6963 6.32031 10.5693C6.40169 10.4424 6.44238 10.2992 6.44238 10.1396ZM13.6738 10.8574V12H9.88965V10.8574H13.6738ZM10.3682 4.89062V12H8.90332V4.89062H10.3682ZM13.1807 7.78613V8.89941H9.88965V7.78613H13.1807ZM13.6689 4.89062V6.03809H9.88965V4.89062H13.6689Z" fill="black"/>
</svg>
